<svg width="304" height="60" viewBox="0 0 304 60" fill="none" xmlns="http://www.w3.org/2000/svg">
<path d="M170.297 17.6476C170.297 16.0051 170.61 14.4641 171.238 13.0246C171.865 11.5851 172.714 10.3301 173.785 9.25972C174.874 8.17086 176.138 7.3127 177.577 6.68522C179.017 6.05775 180.558 5.74401 182.2 5.74401H200.416V13.689H182.2C181.647 13.689 181.13 13.7905 180.65 13.9935C180.17 14.1965 179.746 14.4825 179.377 14.8516C179.026 15.2023 178.749 15.6175 178.546 16.0973C178.343 16.5772 178.242 17.0939 178.242 17.6476C178.242 18.2012 178.343 18.7272 178.546 19.2255C178.749 19.7053 179.026 20.1298 179.377 20.4989C179.746 20.8495 180.17 21.1264 180.65 21.3294C181.13 21.5324 181.647 21.6339 182.2 21.6339H190.145C191.788 21.6339 193.329 21.9476 194.768 22.5751C196.226 23.1841 197.49 24.0331 198.561 25.1219C199.65 26.1923 200.499 27.4565 201.108 28.9144C201.735 30.354 202.049 31.895 202.049 33.5375C202.049 35.18 201.735 36.721 201.108 38.1605C200.499 39.6 199.65 40.8642 198.561 41.953C197.49 43.0234 196.226 43.8723 194.768 44.4998C193.329 45.1273 191.788 45.441 190.145 45.441H172.511V37.4961H190.145C190.699 37.4961 191.216 37.3946 191.695 37.1916C192.175 36.9886 192.591 36.7117 192.941 36.3611C193.31 35.992 193.596 35.5675 193.799 35.0877C194.002 34.6079 194.104 34.0911 194.104 33.5375C194.104 32.9838 194.002 32.4671 193.799 31.9872C193.596 31.5074 193.31 31.0922 192.941 30.7415C192.591 30.3724 192.175 30.0864 191.695 29.8833C191.216 29.6803 190.699 29.5788 190.145 29.5788H182.2C180.558 29.5788 179.017 29.2651 177.577 28.6376C176.138 28.0101 174.874 27.1612 173.785 26.0908C172.714 25.002 171.865 23.7378 171.238 22.2983C170.61 20.8403 170.297 19.2901 170.297 17.6476Z" fill="#3373E6"/>
<path d="M214.035 45.441H206.478V4H214.035V17.0939C214.94 16.4111 215.872 15.9313 216.831 15.6544C217.791 15.3591 218.769 15.2115 219.766 15.2115C221.593 15.2115 223.309 15.5621 224.915 16.2634C226.52 16.9463 227.914 17.8967 229.095 19.1148C230.294 20.3144 231.236 21.7262 231.918 23.3502C232.62 24.9558 232.97 26.6721 232.97 28.4992V45.441H225.358V28.4992H225.413C225.413 27.7241 225.265 26.9951 224.97 26.3123C224.675 25.611 224.269 25.002 223.752 24.4852C223.235 23.9685 222.636 23.5625 221.953 23.2672C221.27 22.9719 220.541 22.8243 219.766 22.8243C218.972 22.8243 218.225 22.9719 217.523 23.2672C216.822 23.5625 216.213 23.9685 215.696 24.4852C215.18 25.002 214.774 25.611 214.478 26.3123C214.183 26.9951 214.035 27.7241 214.035 28.4992V45.441Z" fill="#3373E6"/>
<path d="M267.02 30.354C267.02 32.5686 266.623 34.6355 265.83 36.5549C265.036 38.4558 263.957 40.1075 262.591 41.5101C261.225 42.8942 259.62 43.9923 257.774 44.8043C255.947 45.5979 253.982 45.9947 251.878 45.9947C249.792 45.9947 247.827 45.5979 245.981 44.8043C244.154 43.9923 242.549 42.8942 241.165 41.5101C239.799 40.1075 238.719 38.4558 237.926 36.5549C237.132 34.6355 236.735 32.5686 236.735 30.354C236.735 28.1024 237.132 26.017 237.926 24.0977C238.719 22.1783 239.799 20.5266 241.165 19.1424C242.549 17.7399 244.154 16.6418 245.981 15.8482C247.827 15.0546 249.792 14.6578 251.878 14.6578C253.982 14.6578 255.947 15.0362 257.774 15.7928C259.62 16.531 261.225 17.5922 262.591 18.9764C263.957 20.342 265.036 21.9938 265.83 23.9316C266.623 25.8509 267.02 27.9917 267.02 30.354ZM259.407 30.354C259.407 29.1359 259.204 28.0378 258.798 27.0597C258.411 26.0631 257.876 25.2142 257.193 24.5129C256.51 23.7931 255.707 23.2487 254.784 22.8796C253.88 22.4921 252.911 22.2983 251.878 22.2983C250.844 22.2983 249.866 22.4921 248.943 22.8796C248.039 23.2487 247.245 23.7931 246.563 24.5129C245.898 25.2142 245.372 26.0631 244.985 27.0597C244.597 28.0378 244.403 29.1359 244.403 30.354C244.403 31.4982 244.597 32.5593 244.985 33.5375C245.372 34.5156 245.898 35.3645 246.563 36.0843C247.245 36.804 248.039 37.3761 248.943 37.8006C249.866 38.2066 250.844 38.4096 251.878 38.4096C252.911 38.4096 253.88 38.2158 254.784 37.8283C255.707 37.4407 256.51 36.8963 257.193 36.195C257.876 35.4937 258.411 34.6448 258.798 33.6482C259.204 32.6516 259.407 31.5535 259.407 30.354Z" fill="#3373E6"/>
<path d="M278.813 56.7356H271.2V15.7928H273.027L276.045 19.3639C276.728 18.718 277.475 18.109 278.287 17.5369C279.099 16.9647 279.939 16.4757 280.806 16.0697C281.692 15.6452 282.606 15.313 283.547 15.0731C284.488 14.8332 285.438 14.7132 286.398 14.7132C288.484 14.7132 290.44 15.0915 292.267 15.8482C294.112 16.5864 295.718 17.6384 297.084 19.004C298.468 20.3697 299.557 22.0215 300.35 23.9592C301.144 25.8786 301.541 28.0101 301.541 30.354C301.541 32.79 301.144 34.9862 300.35 36.9424C299.557 38.8802 298.468 40.532 297.084 41.8976C295.718 43.2449 294.112 44.2784 292.267 44.9981C290.44 45.7179 288.484 46.0777 286.398 46.0777C285.734 46.0777 285.069 46.0039 284.405 45.8563C283.759 45.7086 283.113 45.5149 282.467 45.2749C281.84 45.0166 281.212 44.7305 280.585 44.4168C279.976 44.103 279.385 43.7801 278.813 43.4479V56.7356ZM293.955 30.354C293.955 29.099 293.752 27.9732 293.346 26.9767C292.959 25.9801 292.424 25.1404 291.741 24.4575C291.058 23.7562 290.255 23.221 289.332 22.8519C288.41 22.4828 287.432 22.2983 286.398 22.2983C285.365 22.2983 284.386 22.4828 283.464 22.8519C282.559 23.221 281.766 23.7562 281.083 24.4575C280.4 25.1404 279.856 25.9801 279.45 26.9767C279.062 27.9732 278.868 29.099 278.868 30.354C278.868 31.5535 279.062 32.6516 279.45 33.6482C279.856 34.6448 280.4 35.4937 281.083 36.195C281.766 36.8963 282.559 37.4407 283.464 37.8283C284.386 38.2158 285.365 38.4096 286.398 38.4096C287.432 38.4096 288.41 38.2158 289.332 37.8283C290.255 37.4407 291.058 36.8963 291.741 36.195C292.424 35.4937 292.959 34.6448 293.346 33.6482C293.752 32.6516 293.955 31.5535 293.955 30.354Z" fill="#3373E6"/>
<path d="M43.0535 27.0597C43.0535 28.9421 42.8043 30.76 42.306 32.5132C41.8262 34.248 41.1434 35.8813 40.2575 37.413C39.3717 38.9264 38.3013 40.3105 37.0463 41.5655C35.7914 42.8204 34.4072 43.9 32.8939 44.8043C31.3806 45.6902 29.7473 46.373 27.9941 46.8529C26.2408 47.3511 24.423 47.6003 22.5406 47.6003C20.6582 47.6003 18.8403 47.3511 17.0871 46.8529C15.3523 46.373 13.719 45.6902 12.1872 44.8043C10.6739 43.9 9.28978 42.8204 8.03483 41.5655C6.77988 40.3105 5.70026 38.9264 4.79595 37.413C3.91011 35.8813 3.21804 34.248 2.71975 32.5132C2.23992 30.76 2 28.9421 2 27.0597C2 25.1773 2.23992 23.3595 2.71975 21.6062C3.21804 19.853 3.91011 18.2197 4.79595 16.7064C5.70026 15.193 6.77988 13.8089 8.03483 12.554C9.28978 11.299 10.6739 10.2286 12.1872 9.34277C13.719 8.45692 15.3523 7.77408 17.0871 7.29424C18.8403 6.79596 20.6582 6.54681 22.5406 6.54681C24.423 6.54681 26.2408 6.79596 27.9941 7.29424C29.7473 7.77408 31.3806 8.45692 32.8939 9.34277C34.4072 10.2286 35.7914 11.299 37.0463 12.554C38.3013 13.8089 39.3717 15.193 40.2575 16.7064C41.1434 18.2197 41.8262 19.853 42.306 21.6062C42.8043 23.3595 43.0535 25.1773 43.0535 27.0597ZM35.1639 27.0597C35.1639 25.3249 34.8317 23.6916 34.1673 22.1599C33.5029 20.6096 32.5986 19.2716 31.4544 18.1459C30.3287 17.0017 28.9907 16.0973 27.4404 15.433C25.9086 14.7686 24.2754 14.4364 22.5406 14.4364C20.7873 14.4364 19.1448 14.7686 17.6131 15.433C16.0813 16.0973 14.7433 17.0017 13.5991 18.1459C12.4548 19.2716 11.5505 20.6096 10.8862 22.1599C10.2218 23.6916 9.88958 25.3249 9.88958 27.0597C9.88958 28.7945 10.2218 30.4278 10.8862 31.9596C11.5505 33.4729 12.4548 34.8016 13.5991 35.9459C14.7433 37.0901 16.0813 37.9944 17.6131 38.6588C19.1448 39.3232 20.7873 39.6553 22.5406 39.6553C24.2754 39.6553 25.9086 39.3232 27.4404 38.6588C28.9907 37.9944 30.3287 37.0901 31.4544 35.9459C32.5986 34.8016 33.5029 33.4729 34.1673 31.9596C34.8317 30.4278 35.1639 28.7945 35.1639 27.0597Z" fill="#FF4848"/>
<path d="M55.0401 46.7421H47.4827V17.0939H49.3098L51.8012 19.9729C53.0193 18.8656 54.3942 18.0167 55.9259 17.4261C57.4762 16.8171 59.091 16.5126 60.7704 16.5126C62.579 16.5126 64.2861 16.8632 65.8917 17.5645C67.4973 18.2474 68.8999 19.1978 70.0995 20.4159C71.2991 21.6154 72.2403 23.0273 72.9231 24.6513C73.6244 26.2569 73.9751 27.9732 73.9751 29.8003V46.7421H66.4177V29.8003C66.4177 29.0252 66.2701 28.2962 65.9748 27.6134C65.6795 26.9121 65.2735 26.303 64.7567 25.7863C64.24 25.2696 63.6402 24.8635 62.9574 24.5683C62.2745 24.273 61.5455 24.1253 60.7704 24.1253C59.9768 24.1253 59.2294 24.273 58.5281 24.5683C57.8268 24.8635 57.2178 25.2696 56.7011 25.7863C56.1843 26.303 55.7783 26.9121 55.483 27.6134C55.1877 28.2962 55.0401 29.0252 55.0401 29.8003V46.7421Z" fill="#FF4848"/>
<path d="M86.986 46.7421H79.3732V5.30109H86.986V46.7421Z" fill="#FF4848"/>
<path d="M101.685 9.03826C101.685 9.73955 101.547 10.3947 101.27 11.0037C101.012 11.6127 100.652 12.1479 100.191 12.6093C99.7292 13.0523 99.1848 13.4121 98.5573 13.689C97.9483 13.9473 97.2932 14.0765 96.5919 14.0765C95.8906 14.0765 95.2262 13.9473 94.5987 13.689C93.9897 13.4121 93.4545 13.0523 92.9931 12.6093C92.5502 12.1479 92.1903 11.6127 91.9135 11.0037C91.6551 10.3947 91.5259 9.73955 91.5259 9.03826C91.5259 8.35542 91.6551 7.70948 91.9135 7.10047C92.1903 6.47299 92.5502 5.93779 92.9931 5.49487C93.4545 5.03349 93.9897 4.67361 94.5987 4.41524C95.2262 4.13841 95.8906 4 96.5919 4C97.2932 4 97.9483 4.13841 98.5573 4.41524C99.1848 4.67361 99.7292 5.03349 100.191 5.49487C100.652 5.93779 101.012 6.47299 101.27 7.10047C101.547 7.70948 101.685 8.35542 101.685 9.03826ZM100.384 46.7421H92.7717V17.0939H100.384V46.7421Z" fill="#FF4848"/>
<path d="M113.727 46.7421H106.17V17.0939H107.997L110.489 19.9729C111.707 18.8656 113.082 18.0167 114.613 17.4261C116.164 16.8171 117.778 16.5126 119.458 16.5126C121.266 16.5126 122.974 16.8632 124.579 17.5645C126.185 18.2474 127.587 19.1978 128.787 20.4159C129.986 21.6154 130.928 23.0273 131.611 24.6513C132.312 26.2569 132.662 27.9732 132.662 29.8003V46.7421H125.105V29.8003C125.105 29.0252 124.957 28.2962 124.662 27.6134C124.367 26.9121 123.961 26.303 123.444 25.7863C122.927 25.2696 122.328 24.8635 121.645 24.5683C120.962 24.273 120.233 24.1253 119.458 24.1253C118.664 24.1253 117.917 24.273 117.215 24.5683C116.514 24.8635 115.905 25.2696 115.388 25.7863C114.872 26.303 114.466 26.9121 114.17 27.6134C113.875 28.2962 113.727 29.0252 113.727 29.8003V46.7421Z" fill="#FF4848"/>
<path d="M149.853 39.4893C150.149 39.5815 150.444 39.6461 150.739 39.683C151.035 39.7015 151.33 39.7107 151.625 39.7107C152.363 39.7107 153.074 39.6092 153.757 39.4062C154.44 39.2032 155.076 38.9171 155.667 38.548C156.276 38.1605 156.811 37.6991 157.272 37.1639C157.752 36.6102 158.14 36.0012 158.435 35.3368L163.972 40.9011C163.27 41.8976 162.458 42.7927 161.536 43.5863C160.631 44.3799 159.644 45.0535 158.573 45.6071C157.522 46.1608 156.405 46.576 155.224 46.8529C154.061 47.1481 152.862 47.2958 151.625 47.2958C149.54 47.2958 147.574 46.9082 145.729 46.1331C143.902 45.358 142.296 44.2784 140.912 42.8942C139.546 41.5101 138.467 39.8676 137.673 37.9667C136.879 36.0474 136.483 33.9435 136.483 31.655C136.483 29.3112 136.879 27.1704 137.673 25.2326C138.467 23.2949 139.546 21.6431 140.912 20.2774C142.296 18.9118 143.902 17.8506 145.729 17.0939C147.574 16.3373 149.54 15.9589 151.625 15.9589C152.862 15.9589 154.07 16.1066 155.252 16.4019C156.433 16.6971 157.549 17.1216 158.601 17.6753C159.672 18.2289 160.668 18.9118 161.591 19.7238C162.514 20.5174 163.326 21.4124 164.027 22.409L149.853 39.4893ZM153.729 23.9039C153.378 23.7747 153.028 23.6916 152.677 23.6547C152.345 23.6178 151.994 23.5994 151.625 23.5994C150.592 23.5994 149.614 23.7931 148.691 24.1807C147.786 24.5498 146.993 25.085 146.31 25.7863C145.646 26.4876 145.12 27.3365 144.732 28.3331C144.345 29.3112 144.151 30.4185 144.151 31.655C144.151 31.9319 144.16 32.2456 144.178 32.5963C144.215 32.9469 144.262 33.3068 144.317 33.6759C144.391 34.0265 144.474 34.3679 144.566 34.7001C144.658 35.0323 144.778 35.3276 144.926 35.586L153.729 23.9039Z" fill="#FF4848"/>
</svg>
