<svg width="60" height="60" viewBox="0 0 60 60" fill="none" xmlns="http://www.w3.org/2000/svg">
<rect width="60" height="60" rx="30" fill="#3373E6"/>
<path d="M17.4282 13C18.0183 13.0001 18.5325 13.3811 18.6753 13.9238L19.0745 15.4375H45.7126C46.1083 15.4374 46.482 15.6101 46.7257 15.9055C46.9725 16.2037 47.0591 16.5938 46.9596 16.9611L44.3884 26.7113C44.2587 27.2019 43.8228 27.5657 43.293 27.6253L22.8888 29.9009H22.7084C22.668 29.9009 22.4074 29.8804 22.3283 29.9009C21.6434 30.0789 20.6378 30.4208 20.45 29.7716L20.0418 29.155C20.0391 29.1452 20.0365 29.1354 20.034 29.1255L16.4229 15.4375H12.2857C11.5756 15.4375 11 14.8919 11 14.2188C11 13.5457 11.5756 13 12.2857 13H17.4282Z" fill="white"/>
<path d="M29.4731 38C31.6032 38 33.33 36.363 33.33 34.3437C33.33 32.3243 31.6032 30.6873 29.4731 30.6873C27.3429 30.6873 25.6161 32.3243 25.6161 34.3437C25.6161 36.363 27.3429 38 29.4731 38Z" fill="white"/>
<path d="M43.1666 34.3192C43.1666 36.3385 41.4398 37.9755 39.3096 37.9755C37.1795 37.9755 35.4527 36.3385 35.4527 34.3192C35.4527 32.2999 37.1795 30.6629 39.3096 30.6629C41.4398 30.6629 43.1666 32.2999 43.1666 34.3192Z" fill="white"/>
<path d="M23 41.8014C31 46.5 42.5 45.5 48 36" stroke="white" stroke-width="2" stroke-linecap="round"/>
</svg>
