<svg width="50" height="50" viewBox="0 0 50 50" fill="none" xmlns="http://www.w3.org/2000/svg">
<g clip-path="url(#clip0_25709_226)">
<path d="M25 0C17.8398 0 11.3814 3.0114 6.82494 7.83404L6.08221 8.62016L3.08727 8.88144C1.91894 8.98337 0.961056 9.98453 1.0685 11.2161C1.16098 12.2761 2.00122 13.0312 2.97835 13.156C1.0781 16.682 0 20.7164 0 25C0 38.8071 11.1929 50 25 50C38.8071 50 50 38.8071 50 25C50 11.1929 38.8071 0 25 0Z" fill="#3373E6"/>
<path d="M25 47.5962C37.4795 47.5962 47.5962 37.4795 47.5962 25C47.5962 12.5205 37.4795 2.40386 25 2.40386C18.9228 2.40386 13.4059 4.80296 9.34486 8.70573C8.96414 8.50148 8.52309 8.40731 8.07809 8.44604L7.52388 8.49439C11.9063 3.85598 18.1151 0.961548 25 0.961548C38.2761 0.961548 49.0385 11.7239 49.0385 25C49.0385 38.2761 38.2761 49.0385 25 49.0385C11.7239 49.0385 0.961548 38.2761 0.961548 25C0.961548 20.6747 2.10393 16.6161 4.10343 13.1097L5.87849 12.9548C3.67752 16.4415 2.40386 20.572 2.40386 25C2.40386 37.4795 12.5205 47.5962 25 47.5962Z" fill="white"/>
<path d="M9.45032 10.196C9.2657 9.68071 8.7344 9.35409 8.16168 9.40395L3.17087 9.83936C2.48178 9.89948 1.96937 10.4785 2.02643 11.1325C2.08349 11.7866 2.68841 12.268 3.37751 12.2078L7.39263 11.8575L12.0576 24.8521L12.0639 24.87L12.0677 24.8801L12.5161 25.4447C12.7318 26.0035 13.5338 25.7096 14.1659 25.4781C14.2292 25.4549 14.2908 25.4323 14.3499 25.4113C14.4081 25.3906 14.574 25.3847 14.6641 25.3815L14.6647 25.3815C14.6905 25.3805 14.7101 25.3798 14.7188 25.3791L14.8939 25.3638L34.5033 21.4251C35.0124 21.3222 35.4046 20.9318 35.4888 20.4441L37.1577 10.7524C37.2231 10.3872 37.106 10.0155 36.8412 9.74659C36.5796 9.48011 36.2024 9.34399 35.8183 9.37761L9.96606 11.633L9.45032 10.196Z" fill="white"/>
<path d="M25.4037 28.7967C25.5749 30.7588 24.0378 32.4956 21.9705 32.676C19.9032 32.8563 18.0886 31.4119 17.9174 29.4498C17.7462 27.4876 19.2833 25.7508 21.3506 25.5704C23.4179 25.3901 25.2325 26.8345 25.4037 28.7967Z" fill="white"/>
<path d="M31.5148 31.8194C33.5821 31.639 35.1192 29.9022 34.948 27.94C34.7769 25.9779 32.9622 24.5335 30.8949 24.7138C28.8276 24.8942 27.2905 26.631 27.4617 28.5932C27.6329 30.5553 29.4475 31.9997 31.5148 31.8194Z" fill="white"/>
<path d="M15.1309 36.4987C15.3619 36.0123 15.9432 35.8056 16.429 36.037C24.2295 39.7528 34.6507 37.8391 38.899 28.7504C39.127 28.2625 39.7069 28.0522 40.1942 28.2806C40.6816 28.509 40.8917 29.0897 40.6637 29.5775C35.8472 39.882 24.1164 41.859 15.5922 37.7985C15.1064 37.567 14.8998 36.9851 15.1309 36.4987Z" fill="white"/>
</g>
<defs>
<clipPath id="clip0_25709_226">
<rect width="50" height="50" fill="white"/>
</clipPath>
</defs>
</svg>
