<svg width="222" height="27" viewBox="0 0 222 27" fill="none" xmlns="http://www.w3.org/2000/svg">
<path d="M13.2308 26.32C11.3534 26.32 9.63609 26.0107 8.07875 25.392C6.52142 24.752 5.17742 23.8667 4.04675 22.736C2.93742 21.584 2.07342 20.2293 1.45475 18.672C0.836086 17.0933 0.526752 15.3653 0.526752 13.488C0.526752 11.6107 0.836086 9.89333 1.45475 8.336C2.07342 6.77867 2.93742 5.43467 4.04675 4.304C5.17742 3.152 6.52142 2.26667 8.07875 1.648C9.63609 1.008 11.3534 0.688 13.2308 0.688C15.1081 0.688 16.8148 1.008 18.3508 1.648C19.9081 2.26667 21.2521 3.152 22.3828 4.304C23.5134 5.43467 24.3881 6.77867 25.0068 8.336C25.6254 9.89333 25.9348 11.6107 25.9348 13.488C25.9348 15.3653 25.6254 17.0933 25.0068 18.672C24.3881 20.2293 23.5134 21.584 22.3828 22.736C21.2521 23.8667 19.9081 24.752 18.3508 25.392C16.8148 26.0107 15.1081 26.32 13.2308 26.32ZM13.2308 23.312C14.6174 23.312 15.8868 23.0667 17.0388 22.576C18.2121 22.064 19.2254 21.3707 20.0788 20.496C20.9321 19.6 21.5828 18.5547 22.0308 17.36C22.5001 16.1653 22.7348 14.8747 22.7348 13.488C22.7348 12.1013 22.5001 10.8107 22.0308 9.616C21.5828 8.42133 20.9321 7.38667 20.0788 6.512C19.2254 5.616 18.2121 4.92267 17.0388 4.432C15.8868 3.94133 14.6174 3.696 13.2308 3.696C11.8441 3.696 10.5641 3.94133 9.39075 4.432C8.23875 4.92267 7.23609 5.616 6.38275 6.512C5.55075 7.38667 4.90009 8.42133 4.43075 9.616C3.96142 10.8107 3.72675 12.1013 3.72675 13.488C3.72675 14.8747 3.96142 16.1653 4.43075 17.36C4.90009 18.5547 5.55075 19.6 6.38275 20.496C7.23609 21.3707 8.23875 22.064 9.39075 22.576C10.5641 23.0667 11.8441 23.312 13.2308 23.312ZM31.4995 26C31.0302 26 30.6355 25.84 30.3155 25.52C30.0168 25.2 29.8675 24.8053 29.8675 24.336V2.672C29.8675 2.18133 30.0168 1.78667 30.3155 1.488C30.6355 1.168 31.0302 1.008 31.4995 1.008C32.0115 1.008 32.4382 1.21067 32.7795 1.616L46.7315 20.176V2.672C46.7315 2.18133 46.8915 1.78667 47.2115 1.488C47.5315 1.168 47.9262 1.008 48.3955 1.008C48.8862 1.008 49.2808 1.168 49.5795 1.488C49.8782 1.78667 50.0275 2.18133 50.0275 2.672V24.336C50.0275 24.8053 49.8782 25.2 49.5795 25.52C49.2808 25.84 48.8862 26 48.3955 26C48.1822 26 47.9475 25.9573 47.6915 25.872C47.4568 25.7653 47.2648 25.616 47.1155 25.424L33.1635 6.864V24.336C33.1635 24.8053 33.0035 25.2 32.6835 25.52C32.3848 25.84 31.9902 26 31.4995 26ZM56.782 26C56.3127 26 55.918 25.84 55.598 25.52C55.2993 25.2 55.15 24.8053 55.15 24.336V2.672C55.15 2.20267 55.31 1.808 55.63 1.488C55.95 1.168 56.334 1.008 56.782 1.008C57.2513 1.008 57.646 1.168 57.966 1.488C58.286 1.808 58.446 2.20267 58.446 2.672V22.672H70.03C70.4993 22.672 70.894 22.832 71.214 23.152C71.534 23.472 71.694 23.8667 71.694 24.336C71.694 24.8053 71.534 25.2 71.214 25.52C70.894 25.84 70.4993 26 70.03 26H56.782ZM76.0653 26C75.5959 26 75.2013 25.84 74.8813 25.52C74.5613 25.2 74.4013 24.8053 74.4013 24.336V2.672C74.4013 2.18133 74.5613 1.78667 74.8813 1.488C75.2013 1.168 75.5959 1.008 76.0653 1.008C76.5559 1.008 76.9506 1.168 77.2493 1.488C77.5693 1.78667 77.7293 2.18133 77.7293 2.672V24.336C77.7293 24.8053 77.5693 25.2 77.2493 25.52C76.9506 25.84 76.5559 26 76.0653 26ZM84.472 26C84.0027 26 83.608 25.84 83.288 25.52C82.9893 25.2 82.84 24.8053 82.84 24.336V2.672C82.84 2.18133 82.9893 1.78667 83.288 1.488C83.608 1.168 84.0027 1.008 84.472 1.008C84.984 1.008 85.4107 1.21067 85.752 1.616L99.704 20.176V2.672C99.704 2.18133 99.864 1.78667 100.184 1.488C100.504 1.168 100.899 1.008 101.368 1.008C101.859 1.008 102.253 1.168 102.552 1.488C102.851 1.78667 103 2.18133 103 2.672V24.336C103 24.8053 102.851 25.2 102.552 25.52C102.253 25.84 101.859 26 101.368 26C101.155 26 100.92 25.9573 100.664 25.872C100.429 25.7653 100.237 25.616 100.088 25.424L86.136 6.864V24.336C86.136 24.8053 85.976 25.2 85.656 25.52C85.3573 25.84 84.9627 26 84.472 26ZM109.787 26C109.317 26 108.923 25.84 108.603 25.52C108.283 25.2 108.123 24.8053 108.123 24.336V2.672C108.123 2.18133 108.283 1.78667 108.603 1.488C108.923 1.168 109.317 1.008 109.787 1.008H124.251C124.741 1.008 125.136 1.15733 125.435 1.456C125.733 1.73333 125.883 2.10667 125.883 2.576C125.883 3.024 125.733 3.38667 125.435 3.664C125.136 3.94133 124.741 4.08 124.251 4.08H111.451V11.856H120.635C121.125 11.856 121.52 12.0053 121.819 12.304C122.117 12.5813 122.267 12.944 122.267 13.392C122.267 13.84 122.117 14.2133 121.819 14.512C121.52 14.7893 121.125 14.928 120.635 14.928H111.451V22.928H124.251C124.741 22.928 125.136 23.0667 125.435 23.344C125.733 23.6213 125.883 23.984 125.883 24.432C125.883 24.9013 125.733 25.2853 125.435 25.584C125.136 25.8613 124.741 26 124.251 26H109.787ZM137.185 26.32C135.819 26.32 134.518 26.1067 133.281 25.68C132.043 25.2533 130.966 24.656 130.049 23.888C129.131 23.12 128.459 22.2347 128.033 21.232C127.819 20.784 127.819 20.368 128.033 19.984C128.267 19.6 128.651 19.3547 129.185 19.248C129.569 19.1627 129.942 19.2267 130.305 19.44C130.689 19.632 130.977 19.9307 131.169 20.336C131.425 20.8693 131.841 21.36 132.417 21.808C133.014 22.256 133.729 22.6187 134.561 22.896C135.393 23.1733 136.267 23.312 137.185 23.312C138.209 23.312 139.147 23.152 140.001 22.832C140.875 22.512 141.579 22.0533 142.113 21.456C142.646 20.8373 142.913 20.08 142.913 19.184C142.913 18.0533 142.465 17.04 141.569 16.144C140.694 15.248 139.243 14.6933 137.217 14.48C134.571 14.224 132.491 13.4453 130.977 12.144C129.462 10.8427 128.705 9.232 128.705 7.312C128.705 5.904 129.099 4.70933 129.889 3.728C130.678 2.74667 131.745 2 133.089 1.488C134.454 0.975999 135.969 0.719999 137.633 0.719999C138.934 0.719999 140.065 0.901332 141.025 1.264C142.006 1.62667 142.859 2.128 143.585 2.768C144.31 3.408 144.939 4.16533 145.473 5.04C145.771 5.50933 145.889 5.95733 145.825 6.384C145.782 6.78933 145.579 7.10933 145.217 7.344C144.811 7.6 144.374 7.65333 143.905 7.504C143.435 7.35467 143.083 7.07733 142.849 6.672C142.507 6.05333 142.091 5.53067 141.601 5.104C141.11 4.67733 140.534 4.34667 139.873 4.112C139.211 3.856 138.433 3.728 137.537 3.728C135.958 3.70667 134.635 4.00533 133.569 4.624C132.502 5.22133 131.969 6.14933 131.969 7.408C131.969 8.048 132.129 8.66667 132.449 9.264C132.79 9.84 133.398 10.3413 134.273 10.768C135.169 11.1947 136.449 11.4933 138.113 11.664C140.651 11.92 142.625 12.6987 144.033 14C145.462 15.28 146.177 16.976 146.177 19.088C146.177 20.304 145.921 21.36 145.409 22.256C144.918 23.152 144.246 23.9093 143.393 24.528C142.561 25.1253 141.601 25.5733 140.513 25.872C139.446 26.1707 138.337 26.32 137.185 26.32ZM151.664 26C151.195 26 150.8 25.84 150.48 25.52C150.16 25.2 150 24.8053 150 24.336V2.672C150 2.18133 150.16 1.78667 150.48 1.488C150.8 1.168 151.195 1.008 151.664 1.008C152.155 1.008 152.549 1.168 152.848 1.488C153.168 1.78667 153.328 2.18133 153.328 2.672V11.856H168.176V2.672C168.176 2.18133 168.336 1.78667 168.656 1.488C168.976 1.168 169.371 1.008 169.84 1.008C170.331 1.008 170.725 1.168 171.024 1.488C171.323 1.78667 171.472 2.18133 171.472 2.672V24.336C171.472 24.8053 171.323 25.2 171.024 25.52C170.725 25.84 170.331 26 169.84 26C169.371 26 168.976 25.84 168.656 25.52C168.336 25.2 168.176 24.8053 168.176 24.336V14.8H153.328V24.336C153.328 24.8053 153.168 25.2 152.848 25.52C152.549 25.84 152.155 26 151.664 26ZM188.147 26.32C186.27 26.32 184.552 26.0107 182.995 25.392C181.438 24.752 180.094 23.8667 178.963 22.736C177.854 21.584 176.99 20.2293 176.371 18.672C175.752 17.0933 175.443 15.3653 175.443 13.488C175.443 11.6107 175.752 9.89333 176.371 8.336C176.99 6.77867 177.854 5.43467 178.963 4.304C180.094 3.152 181.438 2.26667 182.995 1.648C184.552 1.008 186.27 0.688 188.147 0.688C190.024 0.688 191.731 1.008 193.267 1.648C194.824 2.26667 196.168 3.152 197.299 4.304C198.43 5.43467 199.304 6.77867 199.923 8.336C200.542 9.89333 200.851 11.6107 200.851 13.488C200.851 15.3653 200.542 17.0933 199.923 18.672C199.304 20.2293 198.43 21.584 197.299 22.736C196.168 23.8667 194.824 24.752 193.267 25.392C191.731 26.0107 190.024 26.32 188.147 26.32ZM188.147 23.312C189.534 23.312 190.803 23.0667 191.955 22.576C193.128 22.064 194.142 21.3707 194.995 20.496C195.848 19.6 196.499 18.5547 196.947 17.36C197.416 16.1653 197.651 14.8747 197.651 13.488C197.651 12.1013 197.416 10.8107 196.947 9.616C196.499 8.42133 195.848 7.38667 194.995 6.512C194.142 5.616 193.128 4.92267 191.955 4.432C190.803 3.94133 189.534 3.696 188.147 3.696C186.76 3.696 185.48 3.94133 184.307 4.432C183.155 4.92267 182.152 5.616 181.299 6.512C180.467 7.38667 179.816 8.42133 179.347 9.616C178.878 10.8107 178.643 12.1013 178.643 13.488C178.643 14.8747 178.878 16.1653 179.347 17.36C179.816 18.5547 180.467 19.6 181.299 20.496C182.152 21.3707 183.155 22.064 184.307 22.576C185.48 23.0667 186.76 23.312 188.147 23.312ZM206.448 26C205.978 26 205.584 25.84 205.264 25.52C204.944 25.2 204.784 24.8053 204.784 24.336V2.672C204.784 2.18133 204.944 1.78667 205.264 1.488C205.584 1.168 205.978 1.008 206.448 1.008H212.848C214.448 1.008 215.866 1.36 217.104 2.064C218.341 2.768 219.301 3.74933 219.984 5.008C220.688 6.24533 221.04 7.67467 221.04 9.296C221.04 10.8533 220.688 12.24 219.984 13.456C219.301 14.672 218.341 15.6213 217.104 16.304C215.866 16.9867 214.448 17.328 212.848 17.328H208.112V24.336C208.112 24.8053 207.952 25.2 207.632 25.52C207.333 25.84 206.938 26 206.448 26ZM208.112 14.256H212.848C213.829 14.256 214.693 14.0427 215.44 13.616C216.186 13.1893 216.773 12.6027 217.2 11.856C217.626 11.1093 217.84 10.256 217.84 9.296C217.84 8.272 217.626 7.376 217.2 6.608C216.773 5.81867 216.186 5.2 215.44 4.752C214.693 4.304 213.829 4.08 212.848 4.08H208.112V14.256Z" fill="#3373E6"/>
</svg>
